<?xml version="1.0" encoding="UTF-8" standalone="no"?><!DOCTYPE svg PUBLIC "-//W3C//DTD SVG 1.1//EN" "http://www.w3.org/Graphics/SVG/1.1/DTD/svg11.dtd"><svg width="100%" height="100%" viewBox="0 0 1113 1113" version="1.1" xmlns="http://www.w3.org/2000/svg" xmlns:xlink="http://www.w3.org/1999/xlink" xml:space="preserve" xmlns:serif="http://www.serif.com/" style="fill-rule:evenodd;clip-rule:evenodd;stroke-linejoin:round;stroke-miterlimit:2;"><g><g><path d="M988.593,313.511c34.725,15.625 46.875,57.292 31.25,92.012l-218.75,456.6l-121.525,-57.291l218.75,-458.334c15.625,-34.725 55.554,-50.35 90.275,-32.987m-574.65,362.846l-128.475,-60.763l250,-520.833c17.362,-34.721 59.029,-50.346 95.487,-32.988c34.721,17.363 50.346,59.03 32.988,95.488l-250,519.096" style="fill:#ffdd67;fill-rule:nonzero;"/><path d="M629.218,60.04c3.475,1.733 6.946,3.471 10.416,6.942c-32.983,-8.679 -67.708,6.946 -83.333,38.196l-250,520.833l-22.567,-10.417l250,-520.833c17.359,-36.458 59.025,-52.083 95.484,-34.721" style="fill:#eba352;fill-rule:nonzero;"/><path d="M679.568,803.094l-133.684,-64.237l255.209,-531.25c17.362,-36.459 62.5,-53.817 98.958,-36.459c36.458,17.363 52.083,62.5 34.725,98.959l-255.208,532.987" style="fill:#ffdd67;fill-rule:nonzero;"/><path d="M900.051,172.886c3.475,1.737 6.946,3.471 10.417,6.946c-32.984,-8.684 -71.179,6.941 -86.804,39.929l-157.988,331.596l-38.192,22.571l173.609,-364.584c17.362,-38.196 60.766,-53.821 98.958,-36.458" style="fill:#eba352;fill-rule:nonzero;"/><path d="M566.718,697.19l-133.679,-64.233l255.208,-531.25c17.362,-36.459 62.5,-53.821 98.958,-34.725c36.459,17.362 52.084,62.5 34.721,98.958l-255.208,531.25" style="fill:#ffdd67;fill-rule:nonzero;"/><path d="M787.205,65.248c3.471,1.734 6.946,5.209 10.417,6.942c-32.988,-8.679 -71.179,6.946 -86.804,39.933l-178.821,375l-38.196,22.567l194.446,-407.983c17.362,-38.196 62.5,-53.821 98.958,-36.459m201.388,248.263c3.475,1.737 6.946,3.471 10.416,6.946c-31.25,-8.684 -64.233,6.941 -78.125,38.191l-130.208,272.571l-38.192,22.571l145.834,-305.558c15.625,-36.459 55.554,-52.084 90.275,-34.721" style="fill:#eba352;fill-rule:nonzero;"/><path d="M106.651,261.428c46.875,-36.459 123.263,3.47 161.458,128.47c26.042,86.809 29.513,112.85 85.067,138.892l31.25,-64.237c0,-0 493.058,237.845 473.958,276.041c0,0 -59.025,184.029 -159.72,269.096c-149.305,128.475 -498.263,-8.679 -513.888,-340.275c-8.683,-192.708 -128.475,-368.058 -78.125,-407.987" style="fill:#ffdd67;fill-rule:nonzero;"/><path d="M106.651,261.428c8.679,-6.946 19.096,-10.417 29.513,-12.155c-1.738,1.738 -5.209,1.738 -6.946,3.475c-52.084,39.93 1.737,131.942 31.25,215.275c24.308,65.975 45.141,133.684 41.666,199.655c-13.887,288.195 276.042,425.345 449.655,373.262c-170.138,71.183 -486.113,-64.233 -472.221,-364.583c3.471,-65.971 -15.625,-130.209 -41.667,-199.65c-27.779,-83.334 -81.6,-175.35 -31.25,-215.279" style="fill:#eba352;fill-rule:nonzero;"/><path d="M337.551,521.844c107.642,12.154 265.625,166.667 154.517,335.071c81.596,-170.142 -52.084,-284.725 -137.154,-324.654c-8.68,-6.946 -17.363,-10.417 -17.363,-10.417" style="fill:#eba352;fill-rule:nonzero;"/></g></g></svg>